 º     Plot.     º

Carrie Remington seems like any other struggling waitress who's had a run of bad luck including a recent divorce. Things seem to be improving when she moves in with Ashley Dunnfield...things take a turn when Ashley starts digging into her past and finds out that there is much she didn't know about her new roommate's sinister history. Written by AshleyLeggat       

 
 º   General.    º
                                                                                  Name                             :The.Perfect.Roommate[2011][BRRip]XviD-{RedDragon}.avi
Format                           : MPEG-4
Format profile                   : Base Media / Version 2
Codec ID                         : mp42
File size                        : 802 MiB
Duration                         : 1h 29mn
Overall bit rate                 : 1 253 Kbps
Encoded date                     : UTC 2012-01-14 15:14:45
Tagged date                      : UTC 2012-01-14 16:33:40
IMDB                             : http://www.imdb.com/title/tt1622979/
IMDB Rating                      : 4.0/10


 º    Video.     º


ID                               : 1
Format                           : AVC
Format/Info                      : Advanced Video Codec
Format profile                   : High@L2.2
Format settings, CABAC           : Yes
Format settings, ReFrames        : 5 frames
Format settings, GOP             : M=4, N=10
Codec ID                         : avc1
Codec ID/Info                    : Advanced Video Coding
Duration                         : 1h 29mn
Bit rate mode                    : Variable
Bit rate                         : 1 089 Kbps
Width                            : 608 pixels
Height                           : 336 pixels
Display aspect ratio             : 16:9
Frame rate mode                  : Constant
Frame rate                       : 25.000 fps
Color space                      : YUV
Chroma subsampling               : 4:2:0
Bit depth                        : 8 bits
Scan type                        : Progressive
Bits/(Pixel*Frame)               : 0.213
Stream size                      : 697 MiB (87%)
Writing library                  : x264 core 112

 
 º    Audio.     º
 

ID                               : 2
Format                           : AAC
Format/Info                      : Advanced Audio Codec
Format version                   : Version 4
Format profile                   : LC
Format settings, SBR             : No
Codec ID                         : 40
Duration                         : 1h 29mn
Bit rate mode                    : Variable
Bit rate                         : 160 Kbps
Maximum bit rate                 : 242 Kbps
Channel(s)                       : 2 channels
Channel positions                : Front: L R
Sampling rate                    : 48.0 KHz
Stream size                      : 102 MiB (13%)
Encoded date                     : UTC 2012-01-14 15:14:45
Tagged date                      : UTC 2012-01-14 16:33:39
 

 º     Cast.     º


Boti Bliss.......................Carrie Remington
Ashley Leggat....................Ashley Dunnfield
William R. Moses.................Richard Dunnfield
Jon McLaren......................Matt Wilson
Peter J. Gray....................Kyle Perris (as Peter Gray)
Cinthia Burke....................Anna Prieto
Peter Michael Dillon.............Marty Remington (as Peter Dillon)
Sean Tucker......................Detective York
Teresa Donovan...................Paula Wickless (as Trie Donovan)
Christie Watson..................Ethan Wilson
Luigi Saracino...................Homeless Man
Charles Ebbs.....................Bar Patron


[img]http://torrent-stats.info/69df/b4ab3183.png[/img]